<svg version="1.1" id="Layer_1" xmlns="http://www.w3.org/2000/svg" xmlns:xlink="http://www.w3.org/1999/xlink" x="0px" y="0px"
	 width="100%" viewBox="0 0 593 300" enable-background="new 0 0 593 300" xml:space="preserve">
<path fill="#010101" opacity="1.000000" stroke="none" 
	d="
M353.000000,301.000000 
	C235.366119,301.000000 118.232231,301.000000 1.049172,301.000000 
	C1.049172,201.060776 1.049172,101.121529 1.049172,1.091140 
	C198.550568,1.091140 396.101166,1.091140 593.825928,1.091140 
	C593.825928,100.999763 593.825928,200.999847 593.825928,301.000000 
	C513.788147,301.000000 433.644073,301.000000 353.000000,301.000000 
M304.645752,165.499573 
	C304.645752,183.118423 304.645752,200.737289 304.645752,218.791855 
	C306.728790,218.791855 308.350006,218.792252 309.971222,218.791794 
	C324.127258,218.787735 338.333130,218.033493 352.426575,218.970749 
	C369.724030,220.121094 385.744537,217.162964 400.713470,208.460632 
	C401.428101,208.045166 402.280457,207.859558 402.975830,207.420029 
	C403.651886,206.992676 404.573822,206.481674 404.762787,205.826996 
	C407.735352,195.528687 413.671387,186.107925 413.534668,174.877563 
	C413.362335,160.723618 413.257721,146.560516 413.587921,132.412186 
	C413.762360,124.938698 411.664185,118.135048 409.972443,111.013931 
	C406.941345,98.255089 399.684387,91.028534 387.370483,87.030334 
	C380.498138,84.798943 373.993713,82.821274 366.670868,82.934441 
	C347.523132,83.230347 328.367859,83.030609 309.215576,83.046593 
	C307.787964,83.047783 306.360474,83.193123 304.645782,83.287201 
	C304.645782,110.579170 304.645782,137.539352 304.645752,165.499573 
M147.740387,114.733864 
	C147.400116,113.794830 146.908737,112.881752 146.742294,111.912849 
	C144.360962,98.049721 136.053558,90.243362 122.638115,86.432137 
	C116.705170,84.746628 111.123192,82.792641 104.802109,82.941467 
	C91.810501,83.247353 78.804787,83.150642 65.809196,82.945740 
	C62.726822,82.897141 61.078629,83.764175 59.676727,86.526154 
	C54.028023,97.655022 48.088352,108.635925 42.385410,119.737885 
	C41.592728,121.281006 41.179157,123.193092 41.169926,124.937454 
	C41.079067,142.102081 41.057743,159.267731 41.178112,176.431976 
	C41.192497,178.482483 41.815605,180.706345 42.755379,182.543518 
	C48.288124,193.359528 54.119675,204.023880 59.568905,214.880676 
	C61.047798,217.827179 62.652157,218.998886 66.026993,218.873672 
	C73.848862,218.583420 81.747986,218.162399 89.509392,218.905579 
	C106.865105,220.567490 122.819366,216.844101 137.632874,207.932251 
	C139.433365,206.849075 141.278442,205.046555 142.029541,203.151917 
	C145.033142,195.575470 147.783417,187.884613 150.226929,180.110199 
	C150.819168,178.225876 150.511505,175.506912 149.538269,173.780045 
	C145.780991,167.113358 141.694016,160.622681 137.497604,154.218613 
	C136.018967,151.962067 135.825943,150.311310 137.400238,147.997971 
	C140.488083,143.460602 142.815231,138.360138 146.202408,134.082825 
	C150.970779,128.061310 151.940613,122.119164 147.740387,114.733864 
M469.230927,138.500122 
	C469.230927,120.088829 469.230927,101.677544 469.230927,83.351471 
	C459.489716,83.351471 450.420441,83.351471 441.125427,83.351471 
	C441.125427,121.165520 441.107697,158.641830 441.207275,196.117828 
	C441.210388,197.295853 442.123779,199.041397 443.116730,199.562851 
	C463.758026,210.402985 483.712250,223.714264 508.966248,218.800598 
	C509.769043,218.644394 510.656219,218.916779 511.456726,218.755020 
	C513.373901,218.367615 515.428650,218.171310 517.136230,217.315781 
	C528.148682,211.798233 539.027344,206.011276 550.080750,200.579086 
	C552.937256,199.175247 553.730103,197.454941 553.721497,194.430984 
	C553.619629,158.767670 553.650146,123.103996 553.628723,87.440430 
	C553.627869,86.023552 553.457153,84.606773 553.367432,83.217651 
	C543.912292,83.217651 534.954407,83.217651 525.552429,83.217651 
	C525.552429,85.038239 525.552429,86.672127 525.552429,88.306015 
	C525.552551,117.970390 525.565613,147.634781 525.516968,177.299088 
	C525.514404,178.867554 525.484741,181.416840 524.630859,181.846527 
	C518.291626,185.036514 511.991333,189.100204 505.199646,190.415466 
	C493.840790,192.615219 482.848389,190.011108 472.865082,183.593430 
	C470.350281,181.976791 469.090179,180.652313 469.142151,177.495804 
	C469.350616,164.833527 469.229980,152.165848 469.230927,138.500122 
M195.355850,124.141724 
	C194.124924,122.185493 192.893997,120.229263 191.510712,118.030861 
	C183.406113,122.988358 175.551849,127.792725 167.592545,132.661346 
	C170.979446,138.213303 174.202255,143.067230 176.906235,148.194733 
	C177.699493,149.698990 177.690262,152.333511 176.894791,153.841095 
	C174.063232,159.207520 170.734344,164.311539 167.474152,169.713074 
	C175.687119,174.711884 183.456818,179.440918 191.432739,184.295456 
	C194.834671,178.722305 197.840454,173.342987 201.351791,168.316864 
	C202.436768,166.763840 204.850113,165.401398 206.738647,165.283096 
	C212.826294,164.901749 218.952805,165.140976 225.222305,165.140976 
	C225.222305,155.533798 225.222305,146.442856 225.222305,137.071686 
	C222.470535,137.071686 219.915115,136.681671 217.521362,137.138626 
	C206.648560,139.214188 199.504272,135.032166 195.355850,124.141724 
M228.500244,190.703583 
	C221.432251,190.703583 214.364258,190.703583 207.282684,190.703583 
	C207.282684,200.396164 207.282684,209.320297 207.282684,218.491180 
	C230.512268,218.491180 253.531494,218.491180 276.629547,218.491180 
	C276.629547,209.130646 276.629547,200.079590 276.629547,190.703583 
	C260.728668,190.703583 245.114426,190.703583 228.500244,190.703583 
M207.080933,86.722382 
	C207.080933,94.668747 207.080933,102.615112 207.080933,110.776398 
	C230.507690,110.776398 253.517654,110.776398 276.610809,110.776398 
	C276.610809,101.434235 276.610809,92.388580 276.610809,83.033562 
	C254.193329,83.033562 232.087967,82.998703 209.983902,83.149376 
	C209.006729,83.156029 208.041077,84.855759 207.080933,86.722382 
z"/>
<path fill="#FCFCFC" opacity="1.000000" stroke="none" 
	d="
M304.645752,164.999557 
	C304.645782,137.539352 304.645782,110.579170 304.645782,83.287201 
	C306.360474,83.193123 307.787964,83.047783 309.215576,83.046593 
	C328.367859,83.030609 347.523132,83.230347 366.670868,82.934441 
	C373.993713,82.821274 380.498138,84.798943 387.370483,87.030334 
	C399.684387,91.028534 406.941345,98.255089 409.972443,111.013931 
	C411.664185,118.135048 413.762360,124.938698 413.587921,132.412186 
	C413.257721,146.560516 413.362335,160.723618 413.534668,174.877563 
	C413.671387,186.107925 407.735352,195.528687 404.762787,205.826996 
	C404.573822,206.481674 403.651886,206.992676 402.975830,207.420029 
	C402.280457,207.859558 401.428101,208.045166 400.713470,208.460632 
	C385.744537,217.162964 369.724030,220.121094 352.426575,218.970749 
	C338.333130,218.033493 324.127258,218.787735 309.971222,218.791794 
	C308.350006,218.792252 306.728790,218.791855 304.645752,218.791855 
	C304.645752,200.737289 304.645752,183.118423 304.645752,164.999557 
M385.392029,146.500290 
	C385.391815,140.670929 385.780975,134.808823 385.294006,129.020416 
	C384.668610,121.586418 382.974182,114.352745 374.080719,112.463997 
	C370.561584,111.716621 366.898407,111.399948 363.294189,111.347977 
	C353.202972,111.202469 343.108276,111.297302 332.997986,111.297302 
	C332.997986,138.209045 332.997986,164.447479 332.997986,191.046570 
	C345.559265,191.046570 357.893738,191.647385 370.113281,190.725327 
	C374.474548,190.396225 379.670624,187.262894 382.435028,183.781342 
	C384.893066,180.685577 385.041229,175.365692 385.273102,170.978043 
	C385.685638,163.171814 385.390961,155.328232 385.392029,146.500290 
z"/>
<path fill="#FCFCFC" opacity="1.000000" stroke="none" 
	d="
M147.868927,115.104523 
	C151.940613,122.119164 150.970779,128.061310 146.202408,134.082825 
	C142.815231,138.360138 140.488083,143.460602 137.400238,147.997971 
	C135.825943,150.311310 136.018967,151.962067 137.497604,154.218613 
	C141.694016,160.622681 145.780991,167.113358 149.538269,173.780045 
	C150.511505,175.506912 150.819168,178.225876 150.226929,180.110199 
	C147.783417,187.884613 145.033142,195.575470 142.029541,203.151917 
	C141.278442,205.046555 139.433365,206.849075 137.632874,207.932251 
	C122.819366,216.844101 106.865105,220.567490 89.509392,218.905579 
	C81.747986,218.162399 73.848862,218.583420 66.026993,218.873672 
	C62.652157,218.998886 61.047798,217.827179 59.568905,214.880676 
	C54.119675,204.023880 48.288124,193.359528 42.755379,182.543518 
	C41.815605,180.706345 41.192497,178.482483 41.178112,176.431976 
	C41.057743,159.267731 41.079067,142.102081 41.169926,124.937454 
	C41.179157,123.193092 41.592728,121.281006 42.385410,119.737885 
	C48.088352,108.635925 54.028023,97.655022 59.676727,86.526154 
	C61.078629,83.764175 62.726822,82.897141 65.809196,82.945740 
	C78.804787,83.150642 91.810501,83.247353 104.802109,82.941467 
	C111.123192,82.792641 116.705170,84.746628 122.638115,86.432137 
	C136.053558,90.243362 144.360962,98.049721 146.742294,111.912849 
	C146.908737,112.881752 147.400116,113.794830 147.868927,115.104523 
M114.930115,187.448669 
	C120.507729,184.699860 121.455780,181.632080 118.270782,176.472351 
	C113.637001,168.965607 108.842743,161.552307 104.446198,153.909714 
	C103.619629,152.472855 103.627350,149.742188 104.455818,148.302322 
	C109.018311,140.372787 113.835571,132.581131 118.812935,124.902611 
	C121.391174,120.925194 119.759216,117.172791 117.106529,115.231476 
	C113.937714,112.912437 109.536797,111.532845 105.555588,111.226227 
	C97.771194,110.626701 89.901329,110.888885 82.081902,111.187958 
	C80.384735,111.252876 78.171135,112.573860 77.181885,114.000397 
	C70.633247,123.443764 67.755020,133.835037 68.936394,145.475098 
	C69.589157,151.906738 69.293983,158.470764 68.977226,164.953171 
	C68.723610,170.143417 70.710213,174.454025 72.387962,179.180023 
	C75.844795,188.917404 81.842529,192.284210 91.860886,190.851776 
	C99.310135,189.786667 107.230400,192.230896 114.930115,187.448669 
z"/>
<path fill="#FBFBFB" opacity="1.000000" stroke="none" 
	d="
M469.230957,139.000137 
	C469.229980,152.165848 469.350616,164.833527 469.142151,177.495804 
	C469.090179,180.652313 470.350281,181.976791 472.865082,183.593430 
	C482.848389,190.011108 493.840790,192.615219 505.199646,190.415466 
	C511.991333,189.100204 518.291626,185.036514 524.630859,181.846527 
	C525.484741,181.416840 525.514404,178.867554 525.516968,177.299088 
	C525.565613,147.634781 525.552551,117.970390 525.552429,88.306015 
	C525.552429,86.672127 525.552429,85.038239 525.552429,83.217651 
	C534.954407,83.217651 543.912292,83.217651 553.367432,83.217651 
	C553.457153,84.606773 553.627869,86.023552 553.628723,87.440430 
	C553.650146,123.103996 553.619629,158.767670 553.721497,194.430984 
	C553.730103,197.454941 552.937256,199.175247 550.080750,200.579086 
	C539.027344,206.011276 528.148682,211.798233 517.136230,217.315781 
	C515.428650,218.171310 513.373901,218.367615 511.456726,218.755020 
	C510.656219,218.916779 509.769043,218.644394 508.966248,218.800598 
	C483.712250,223.714264 463.758026,210.402985 443.116730,199.562851 
	C442.123779,199.041397 441.210388,197.295853 441.207275,196.117828 
	C441.107697,158.641830 441.125427,121.165520 441.125427,83.351471 
	C450.420441,83.351471 459.489716,83.351471 469.230927,83.351471 
	C469.230927,101.677544 469.230927,120.088829 469.230957,139.000137 
z"/>
<path fill="#FBFBFB" opacity="1.000000" stroke="none" 
	d="
M195.557220,124.441238 
	C199.504272,135.032166 206.648560,139.214188 217.521362,137.138626 
	C219.915115,136.681671 222.470535,137.071686 225.222305,137.071686 
	C225.222305,146.442856 225.222305,155.533798 225.222305,165.140976 
	C218.952805,165.140976 212.826294,164.901749 206.738647,165.283096 
	C204.850113,165.401398 202.436768,166.763840 201.351791,168.316864 
	C197.840454,173.342987 194.834671,178.722305 191.432739,184.295456 
	C183.456818,179.440918 175.687119,174.711884 167.474152,169.713074 
	C170.734344,164.311539 174.063232,159.207520 176.894791,153.841095 
	C177.690262,152.333511 177.699493,149.698990 176.906235,148.194733 
	C174.202255,143.067230 170.979446,138.213303 167.592545,132.661346 
	C175.551849,127.792725 183.406113,122.988358 191.510712,118.030861 
	C192.893997,120.229263 194.124924,122.185493 195.557220,124.441238 
z"/>
<path fill="#FBFBFB" opacity="1.000000" stroke="none" 
	d="
M229.000214,190.703583 
	C245.114426,190.703583 260.728668,190.703583 276.629547,190.703583 
	C276.629547,200.079590 276.629547,209.130646 276.629547,218.491180 
	C253.531494,218.491180 230.512268,218.491180 207.282684,218.491180 
	C207.282684,209.320297 207.282684,200.396164 207.282684,190.703583 
	C214.364258,190.703583 221.432251,190.703583 229.000214,190.703583 
z"/>
<path fill="#FCFCFC" opacity="1.000000" stroke="none" 
	d="
M207.075500,86.244621 
	C208.041077,84.855759 209.006729,83.156029 209.983902,83.149376 
	C232.087967,82.998703 254.193329,83.033562 276.610809,83.033562 
	C276.610809,92.388580 276.610809,101.434235 276.610809,110.776398 
	C253.517654,110.776398 230.507690,110.776398 207.080933,110.776398 
	C207.080933,102.615112 207.080933,94.668747 207.075500,86.244621 
z"/>
<path fill="#020202" opacity="1.000000" stroke="none" 
	d="
M385.392029,147.000275 
	C385.390961,155.328232 385.685638,163.171814 385.273102,170.978043 
	C385.041229,175.365692 384.893066,180.685577 382.435028,183.781342 
	C379.670624,187.262894 374.474548,190.396225 370.113281,190.725327 
	C357.893738,191.647385 345.559265,191.046570 332.997986,191.046570 
	C332.997986,164.447479 332.997986,138.209045 332.997986,111.297302 
	C343.108276,111.297302 353.202972,111.202469 363.294189,111.347977 
	C366.898407,111.399948 370.561584,111.716621 374.080719,112.463997 
	C382.974182,114.352745 384.668610,121.586418 385.294006,129.020416 
	C385.780975,134.808823 385.391815,140.670929 385.392029,147.000275 
z"/>
<path fill="#040404" opacity="1.000000" stroke="none" 
	d="
M114.592514,187.631943 
	C107.230400,192.230896 99.310135,189.786667 91.860886,190.851776 
	C81.842529,192.284210 75.844795,188.917404 72.387962,179.180023 
	C70.710213,174.454025 68.723610,170.143417 68.977226,164.953171 
	C69.293983,158.470764 69.589157,151.906738 68.936394,145.475098 
	C67.755020,133.835037 70.633247,123.443764 77.181885,114.000397 
	C78.171135,112.573860 80.384735,111.252876 82.081902,111.187958 
	C89.901329,110.888885 97.771194,110.626701 105.555588,111.226227 
	C109.536797,111.532845 113.937714,112.912437 117.106529,115.231476 
	C119.759216,117.172791 121.391174,120.925194 118.812935,124.902611 
	C113.835571,132.581131 109.018311,140.372787 104.455818,148.302322 
	C103.627350,149.742188 103.619629,152.472855 104.446198,153.909714 
	C108.842743,161.552307 113.637001,168.965607 118.270782,176.472351 
	C121.455780,181.632080 120.507729,184.699860 114.592514,187.631943 
z"/>
</svg>